<svg width="120" height="40" viewBox="0 0 120 40" fill="none" xmlns="http://www.w3.org/2000/svg">
<rect x="0.759369" width="40.1878" height="40" rx="5" fill="#9EFF00"/>
<path d="M8.08331 12.4749L20.8533 20V34.3662L8.08331 27.0691L8.08331 12.4749Z" fill="#1A1A1A"/>
<path fill-rule="evenodd" clip-rule="evenodd" d="M21.98 19.9899V32.4246L32.4965 26.4152V13.7927L21.98 19.9899ZM33.6232 27.0691L20.8533 34.3662V20L8.08329 12.4748L20.8533 5.63379L33.6232 12.4748V27.0691ZM31.9057 12.833L20.8533 6.91205L10.3821 12.5216L21.4081 19.0191L31.9057 12.833Z" fill="#1A1A1A"/>
<path d="M51.8306 13.3333C53.8512 13.3333 55.3815 14.4327 55.7678 16.2007L53.7472 16.6167C53.5986 15.6807 52.7815 15.0715 51.7861 15.0715C50.7758 15.0715 50.1666 15.6361 50.1666 16.3047C50.1666 16.8098 50.3895 17.1664 51.1621 17.315L53.3015 17.7458C54.9209 18.0875 55.9163 19.0533 55.9163 20.5984C55.9163 22.5298 54.3266 23.7333 51.9643 23.7333C49.8843 23.7333 48.0569 22.7675 47.8043 20.7767L49.9289 20.3458C50.1963 21.475 51.0283 21.9653 52.1575 21.9653C53.3163 21.9653 53.9255 21.4155 53.9255 20.7024C53.9255 20.1378 53.6581 19.7961 52.7666 19.6178L50.6569 19.2167C49.4683 18.9641 48.0421 18.3104 48.0421 16.3641C48.0421 14.5813 49.4981 13.3333 51.8306 13.3333Z" fill="white"/>
<path d="M65.1519 16.0967V26.0361H63.1908V22.931C62.5668 23.4361 61.7496 23.7333 60.7393 23.7333C58.8525 23.7333 57.0993 22.1435 57.0993 19.811C57.0993 17.4784 58.8525 15.8738 60.7393 15.8738C61.7496 15.8738 62.5668 16.171 63.1908 16.691V16.0967H65.1519ZM61.0811 22.0247C62.1359 22.0247 63.1908 21.1778 63.1908 19.811C63.1908 18.4441 62.1359 17.5824 61.0811 17.5824C59.8925 17.5824 59.0011 18.4441 59.0011 19.811C59.0011 21.1778 59.8925 22.0247 61.0811 22.0247Z" fill="white"/>
<path d="M74.2254 16.0967V23.5104H72.2643V22.8418C71.6849 23.4213 70.9123 23.7333 69.9317 23.7333C68.1489 23.7333 66.9603 22.4555 66.9603 20.6133V16.0967H68.9214V20.1973C68.9214 21.2373 69.5157 21.9355 70.422 21.9355C71.5363 21.9355 72.2643 21.1927 72.2643 19.3801V16.0967H74.2254Z" fill="white"/>
<path d="M83.7669 16.0967V23.5104H81.8057V22.931C81.1817 23.4361 80.3646 23.7333 79.3543 23.7333C77.4674 23.7333 75.7143 22.1435 75.7143 19.811C75.7143 17.4784 77.4674 15.8738 79.3543 15.8738C80.3646 15.8738 81.1817 16.171 81.8057 16.691V16.0967H83.7669ZM79.696 22.0247C80.7509 22.0247 81.8057 21.1778 81.8057 19.811C81.8057 18.4441 80.7509 17.5824 79.696 17.5824C78.5074 17.5824 77.616 18.4441 77.616 19.811C77.616 21.1778 78.5074 22.0247 79.696 22.0247Z" fill="white"/>
<path d="M90.4615 15.9927C90.6547 15.9927 90.8032 15.9927 90.9815 16.0521L90.8775 17.939H90.4467C88.6341 17.939 87.8021 19.0533 87.8021 21.1184V23.5104H85.8409V16.0967H87.8021V17.4487C88.3964 16.587 89.2581 15.9927 90.4615 15.9927Z" fill="white"/>
<path d="M99.1355 19.6624V20.331H93.4898C93.683 21.4007 94.4407 22.0544 95.347 22.0544C95.9264 22.0544 96.6544 21.9801 97.1893 21.0738L98.9424 21.4453C98.2887 22.9904 96.9664 23.7333 95.347 23.7333C93.2521 23.7333 91.5435 22.1435 91.5435 19.811C91.5435 17.4784 93.2521 15.8738 95.3767 15.8738C97.3527 15.8738 99.0613 17.4041 99.1355 19.6624ZM95.3767 17.5824C94.6338 17.5824 93.787 18.0281 93.5493 18.9493H97.1298C96.8773 17.9984 96.1641 17.5824 95.3767 17.5824Z" fill="white"/>
<path d="M109.198 13.5561V19.0533C109.198 21.8464 107.49 23.7333 104.919 23.7333C102.29 23.7333 100.536 21.8464 100.536 19.0533V13.5561H102.557V19.0533C102.557 20.7173 103.493 21.8018 104.919 21.8018C106.271 21.8018 107.178 20.7173 107.178 19.0533V13.5561H109.198Z" fill="white"/>
<path d="M115.601 15.8738C117.487 15.8738 119.241 17.4784 119.241 19.811C119.241 22.1435 117.487 23.7333 115.601 23.7333C114.59 23.7333 113.773 23.4361 113.149 22.931V26.0361H111.188V16.0967H113.149V16.691C113.773 16.171 114.59 15.8738 115.601 15.8738ZM115.259 22.0247C116.447 22.0247 117.339 21.1778 117.339 19.811C117.339 18.4441 116.447 17.5824 115.259 17.5824C114.204 17.5824 113.149 18.4441 113.149 19.811C113.149 21.1778 114.204 22.0247 115.259 22.0247Z" fill="white"/>
</svg>
