<svg width="119" height="40" viewBox="0 0 119 40" fill="none" xmlns="http://www.w3.org/2000/svg">
<rect x="0.426086" width="40.1878" height="40" rx="5" fill="#9EFF00"/>
<path d="M7.75 12.4749L20.52 20V34.3662L7.75 27.0691L7.75 12.4749Z" fill="#1A1A1A"/>
<path fill-rule="evenodd" clip-rule="evenodd" d="M21.6467 19.9899V32.4246L32.1632 26.4152V13.7927L21.6467 19.9899ZM33.2899 27.0691L20.52 34.3662V20L7.75 12.4748L20.52 5.63379L33.2899 12.4748V27.0691ZM31.5724 12.833L20.52 6.91205L10.0488 12.5216L21.0748 19.0191L31.5724 12.833Z" fill="#1A1A1A"/>
<path d="M51.4973 13.3333C53.5179 13.3333 55.0482 14.4327 55.4345 16.2007L53.4139 16.6167C53.2653 15.6807 52.4482 15.0715 51.4528 15.0715C50.4425 15.0715 49.8333 15.6361 49.8333 16.3047C49.8333 16.8098 50.0562 17.1664 50.8288 17.315L52.9682 17.7458C54.5876 18.0875 55.583 19.0533 55.583 20.5984C55.583 22.5298 53.9933 23.7333 51.631 23.7333C49.551 23.7333 47.7236 22.7675 47.471 20.7767L49.5956 20.3458C49.863 21.475 50.695 21.9653 51.8242 21.9653C52.983 21.9653 53.5922 21.4155 53.5922 20.7024C53.5922 20.1378 53.3248 19.7961 52.4333 19.6178L50.3236 19.2167C49.135 18.9641 47.7088 18.3104 47.7088 16.3641C47.7088 14.5813 49.1648 13.3333 51.4973 13.3333Z" fill="white"/>
<path d="M64.8186 16.0967V26.0361H62.8575V22.931C62.2335 23.4361 61.4163 23.7333 60.406 23.7333C58.5192 23.7333 56.766 22.1435 56.766 19.811C56.766 17.4784 58.5192 15.8738 60.406 15.8738C61.4163 15.8738 62.2335 16.171 62.8575 16.691V16.0967H64.8186ZM60.7478 22.0247C61.8026 22.0247 62.8575 21.1778 62.8575 19.811C62.8575 18.4441 61.8026 17.5824 60.7478 17.5824C59.5592 17.5824 58.6678 18.4441 58.6678 19.811C58.6678 21.1778 59.5592 22.0247 60.7478 22.0247Z" fill="white"/>
<path d="M73.8921 16.0967V23.5104H71.931V22.8418C71.3516 23.4213 70.579 23.7333 69.5984 23.7333C67.8156 23.7333 66.627 22.4555 66.627 20.6133V16.0967H68.5881V20.1973C68.5881 21.2373 69.1824 21.9355 70.0887 21.9355C71.203 21.9355 71.931 21.1927 71.931 19.3801V16.0967H73.8921Z" fill="white"/>
<path d="M83.4336 16.0967V23.5104H81.4724V22.931C80.8484 23.4361 80.0313 23.7333 79.021 23.7333C77.1341 23.7333 75.381 22.1435 75.381 19.811C75.381 17.4784 77.1341 15.8738 79.021 15.8738C80.0313 15.8738 80.8484 16.171 81.4724 16.691V16.0967H83.4336ZM79.3627 22.0247C80.4176 22.0247 81.4724 21.1778 81.4724 19.811C81.4724 18.4441 80.4176 17.5824 79.3627 17.5824C78.1741 17.5824 77.2827 18.4441 77.2827 19.811C77.2827 21.1778 78.1741 22.0247 79.3627 22.0247Z" fill="white"/>
<path d="M90.1282 15.9927C90.3214 15.9927 90.4699 15.9927 90.6482 16.0521L90.5442 17.939H90.1134C88.3008 17.939 87.4688 19.0533 87.4688 21.1184V23.5104H85.5076V16.0967H87.4688V17.4487C88.0631 16.587 88.9248 15.9927 90.1282 15.9927Z" fill="white"/>
<path d="M98.8022 19.6624V20.331H93.1565C93.3497 21.4007 94.1074 22.0544 95.0137 22.0544C95.5931 22.0544 96.3211 21.9801 96.856 21.0738L98.6091 21.4453C97.9554 22.9904 96.6331 23.7333 95.0137 23.7333C92.9188 23.7333 91.2102 22.1435 91.2102 19.811C91.2102 17.4784 92.9188 15.8738 95.0434 15.8738C97.0194 15.8738 98.728 17.4041 98.8022 19.6624ZM95.0434 17.5824C94.3005 17.5824 93.4537 18.0281 93.216 18.9493H96.7965C96.544 17.9984 95.8308 17.5824 95.0434 17.5824Z" fill="white"/>
<path d="M108.865 13.5561V19.0533C108.865 21.8464 107.156 23.7333 104.586 23.7333C101.956 23.7333 100.203 21.8464 100.203 19.0533V13.5561H102.224V19.0533C102.224 20.7173 103.16 21.8018 104.586 21.8018C105.938 21.8018 106.844 20.7173 106.844 19.0533V13.5561H108.865Z" fill="white"/>
<path d="M115.267 15.8738C117.154 15.8738 118.907 17.4784 118.907 19.811C118.907 22.1435 117.154 23.7333 115.267 23.7333C114.257 23.7333 113.44 23.4361 112.816 22.931V26.0361H110.855V16.0967H112.816V16.691C113.44 16.171 114.257 15.8738 115.267 15.8738ZM114.926 22.0247C116.114 22.0247 117.006 21.1778 117.006 19.811C117.006 18.4441 116.114 17.5824 114.926 17.5824C113.871 17.5824 112.816 18.4441 112.816 19.811C112.816 21.1778 113.871 22.0247 114.926 22.0247Z" fill="white"/>
</svg>
