<svg width="179" height="60" viewBox="0 0 179 60" fill="none" xmlns="http://www.w3.org/2000/svg">
<rect x="0.472412" width="60.2817" height="60" rx="9.37716" fill="#9EFF00"/>
<path d="M11.4583 18.7123L30.6133 30L30.6133 51.5493L11.4583 40.6036L11.4583 18.7123Z" fill="#1A1A1A"/>
<path fill-rule="evenodd" clip-rule="evenodd" d="M32.3034 29.9849V48.6369L48.0781 39.6228V20.6891L32.3034 29.9849ZM49.7682 40.6036L30.6133 51.5493V30L11.4583 18.7123L30.6133 8.45068L49.7682 18.7123V40.6036ZM47.192 19.2495L30.6133 10.3681L14.9065 18.7824L31.4455 28.5287L47.192 19.2495Z" fill="#1A1A1A"/>
<path d="M77.0793 20C80.1101 20 82.4056 21.6491 82.985 24.3011L79.9541 24.9251C79.7313 23.5211 78.5056 22.6074 77.0124 22.6074C75.497 22.6074 74.5833 23.4543 74.5833 24.4571C74.5833 25.2149 74.9176 25.7497 76.0764 25.9726L79.2856 26.6189C81.7147 27.1314 83.2079 28.58 83.2079 30.8977C83.2079 33.7949 80.8233 35.6 77.2799 35.6C74.1599 35.6 71.4187 34.1514 71.0399 31.1651L74.2267 30.5189C74.6279 32.2126 75.8759 32.948 77.5696 32.948C79.3079 32.948 80.2216 32.1234 80.2216 31.0537C80.2216 30.2069 79.8204 29.6943 78.4833 29.4269L75.3187 28.8251C73.5359 28.4463 71.3964 27.4657 71.3964 24.5463C71.3964 21.872 73.5804 20 77.0793 20Z" fill="white"/>
<path d="M97.0612 24.1451V39.0543H94.1195V34.3966C93.1835 35.1543 91.9578 35.6 90.4424 35.6C87.6121 35.6 84.9824 33.2154 84.9824 29.7166C84.9824 26.2177 87.6121 23.8109 90.4424 23.8109C91.9578 23.8109 93.1835 24.2566 94.1195 25.0366V24.1451H97.0612ZM90.9549 33.0371C92.5372 33.0371 94.1195 31.7669 94.1195 29.7166C94.1195 27.6663 92.5372 26.3737 90.9549 26.3737C89.1721 26.3737 87.8349 27.6663 87.8349 29.7166C87.8349 31.7669 89.1721 33.0371 90.9549 33.0371Z" fill="white"/>
<path d="M110.672 24.1451V35.2657H107.73V34.2629C106.861 35.132 105.702 35.6 104.231 35.6C101.557 35.6 99.7738 33.6834 99.7738 30.92V24.1451H102.716V30.296C102.716 31.856 103.607 32.9034 104.966 32.9034C106.638 32.9034 107.73 31.7891 107.73 29.0703V24.1451H110.672Z" fill="white"/>
<path d="M124.984 24.1451V35.2657H122.042V34.3966C121.106 35.1543 119.88 35.6 118.365 35.6C115.535 35.6 112.905 33.2154 112.905 29.7166C112.905 26.2177 115.535 23.8109 118.365 23.8109C119.88 23.8109 121.106 24.2566 122.042 25.0366V24.1451H124.984ZM118.877 33.0371C120.46 33.0371 122.042 31.7669 122.042 29.7166C122.042 27.6663 120.46 26.3737 118.877 26.3737C117.095 26.3737 115.757 27.6663 115.757 29.7166C115.757 31.7669 117.095 33.0371 118.877 33.0371Z" fill="white"/>
<path d="M135.026 23.9891C135.315 23.9891 135.538 23.9891 135.806 24.0783L135.65 26.9086H135.003C132.284 26.9086 131.036 28.58 131.036 31.6777V35.2657H128.095V24.1451H131.036V26.1731C131.928 24.8806 133.22 23.9891 135.026 23.9891Z" fill="white"/>
<path d="M148.037 29.4937V30.4966H139.568C139.858 32.1011 140.994 33.0817 142.354 33.0817C143.223 33.0817 144.315 32.9703 145.117 31.6109L147.747 32.168C146.766 34.4857 144.783 35.6 142.354 35.6C139.212 35.6 136.649 33.2154 136.649 29.7166C136.649 26.2177 139.212 23.8109 142.398 23.8109C145.362 23.8109 147.925 26.1063 148.037 29.4937ZM142.398 26.3737C141.284 26.3737 140.014 27.0423 139.657 28.424H145.028C144.649 26.9977 143.58 26.3737 142.398 26.3737Z" fill="white"/>
<path d="M163.131 20.3343V28.58C163.131 32.7697 160.568 35.6 156.712 35.6C152.768 35.6 150.138 32.7697 150.138 28.58V20.3343H153.169V28.58C153.169 31.076 154.573 32.7029 156.712 32.7029C158.74 32.7029 160.1 31.076 160.1 28.58V20.3343H163.131Z" fill="white"/>
<path d="M172.734 23.8109C175.565 23.8109 178.194 26.2177 178.194 29.7166C178.194 33.2154 175.565 35.6 172.734 35.6C171.219 35.6 169.993 35.1543 169.057 34.3966V39.0543H166.115V24.1451H169.057V25.0366C169.993 24.2566 171.219 23.8109 172.734 23.8109ZM172.222 33.0371C174.005 33.0371 175.342 31.7669 175.342 29.7166C175.342 27.6663 174.005 26.3737 172.222 26.3737C170.639 26.3737 169.057 27.6663 169.057 29.7166C169.057 31.7669 170.639 33.0371 172.222 33.0371Z" fill="white"/>
</svg>
